<mxfile host="app.diagrams.net" modified="2020-09-05T12:14:28.282Z" agent="5.0 (Windows)" etag="6-Rb_pI6R6cGQY2LnKNJ" version="13.6.6" type="github">
  <diagram id="i9ZStBCnUw4le3Zuh658" name="Page-1">
    <mxGraphModel dx="659" dy="479" grid="1" gridSize="10" guides="1" tooltips="1" connect="1" arrows="1" fold="1" page="1" pageScale="1" pageWidth="850" pageHeight="1100" math="0" shadow="0">
      <root>
        <mxCell id="0" />
        <mxCell id="1" parent="0" />
        <mxCell id="_Opn6ATvA_e9WpAW2TfW-1" value="&lt;div&gt;Option A&lt;/div&gt;&lt;div&gt;Social work&lt;br&gt;&lt;/div&gt;&lt;div&gt;&lt;br&gt;&lt;/div&gt;&lt;div&gt;OptionB&lt;/div&gt;&lt;div&gt;Social services&lt;br&gt;&lt;/div&gt;" style="rounded=0;whiteSpace=wrap;html=1;" vertex="1" parent="1">
          <mxGeometry x="10" y="170" width="100" height="120" as="geometry" />
        </mxCell>
        <mxCell id="_Opn6ATvA_e9WpAW2TfW-7" value="" style="endArrow=classic;html=1;" edge="1" parent="1">
          <mxGeometry width="50" height="50" relative="1" as="geometry">
            <mxPoint x="110" y="227.5" as="sourcePoint" />
            <mxPoint x="150" y="227.5" as="targetPoint" />
          </mxGeometry>
        </mxCell>
        <mxCell id="_Opn6ATvA_e9WpAW2TfW-8" value="" style="endArrow=classic;html=1;" edge="1" parent="1">
          <mxGeometry width="50" height="50" relative="1" as="geometry">
            <mxPoint x="250" y="227.5" as="sourcePoint" />
            <mxPoint x="290" y="227.5" as="targetPoint" />
            <Array as="points">
              <mxPoint x="250" y="228" />
              <mxPoint x="260" y="228" />
            </Array>
          </mxGeometry>
        </mxCell>
        <mxCell id="_Opn6ATvA_e9WpAW2TfW-31" style="edgeStyle=orthogonalEdgeStyle;rounded=0;orthogonalLoop=1;jettySize=auto;html=1;exitX=1;exitY=0.5;exitDx=0;exitDy=0;" edge="1" parent="1" source="_Opn6ATvA_e9WpAW2TfW-12">
          <mxGeometry relative="1" as="geometry">
            <mxPoint x="420" y="228" as="targetPoint" />
          </mxGeometry>
        </mxCell>
        <mxCell id="_Opn6ATvA_e9WpAW2TfW-12" value="&lt;div&gt;Option B&lt;/div&gt;&lt;div&gt;Quiestionarre&lt;br&gt;&lt;/div&gt;&lt;div&gt;for desired social workers of users &lt;br&gt;&lt;/div&gt;&lt;div&gt;&lt;br&gt;&lt;/div&gt;&lt;div&gt;&lt;br&gt;&lt;/div&gt;&lt;div&gt;&lt;br&gt;&lt;/div&gt;&lt;div&gt;&lt;br&gt;&lt;/div&gt;" style="rounded=0;whiteSpace=wrap;html=1;" vertex="1" parent="1">
          <mxGeometry x="290" y="168" width="100" height="120" as="geometry" />
        </mxCell>
        <mxCell id="_Opn6ATvA_e9WpAW2TfW-13" value="&lt;div&gt;O&lt;/div&gt;&lt;div&gt;&lt;br&gt;&lt;/div&gt;&lt;div&gt;&lt;br&gt;&lt;/div&gt;&lt;div&gt;Option A&lt;/div&gt;&lt;div&gt;List of &lt;br&gt;&lt;/div&gt;&lt;div&gt;Social working centres country wise.&lt;br&gt;&lt;/div&gt;&lt;div&gt;How one can do social work&lt;br&gt;&lt;/div&gt;&lt;div&gt;&lt;br&gt;&lt;/div&gt;&lt;div&gt;&lt;br&gt;&lt;/div&gt;&lt;div&gt;&lt;br&gt;&lt;/div&gt;&lt;div&gt;&lt;br&gt;&lt;/div&gt;" style="rounded=0;whiteSpace=wrap;html=1;" vertex="1" parent="1">
          <mxGeometry x="150" y="170" width="100" height="120" as="geometry" />
        </mxCell>
        <mxCell id="_Opn6ATvA_e9WpAW2TfW-33" style="edgeStyle=orthogonalEdgeStyle;rounded=0;orthogonalLoop=1;jettySize=auto;html=1;exitX=1;exitY=0.5;exitDx=0;exitDy=0;" edge="1" parent="1" source="_Opn6ATvA_e9WpAW2TfW-17">
          <mxGeometry relative="1" as="geometry">
            <mxPoint x="570" y="220" as="targetPoint" />
          </mxGeometry>
        </mxCell>
        <mxCell id="_Opn6ATvA_e9WpAW2TfW-17" value="Login/ Signup" style="rounded=0;whiteSpace=wrap;html=1;" vertex="1" parent="1">
          <mxGeometry x="425" y="160" width="115" height="120" as="geometry" />
        </mxCell>
        <mxCell id="_Opn6ATvA_e9WpAW2TfW-22" value="" style="endArrow=classic;html=1;" edge="1" parent="1">
          <mxGeometry width="50" height="50" relative="1" as="geometry">
            <mxPoint x="110" y="227.5" as="sourcePoint" />
            <mxPoint x="150" y="227.5" as="targetPoint" />
          </mxGeometry>
        </mxCell>
        <mxCell id="_Opn6ATvA_e9WpAW2TfW-34" value="Login/ Signup" style="rounded=0;whiteSpace=wrap;html=1;" vertex="1" parent="1">
          <mxGeometry x="425" y="160" width="115" height="120" as="geometry" />
        </mxCell>
        <mxCell id="_Opn6ATvA_e9WpAW2TfW-36" value="List of social workers " style="rounded=0;whiteSpace=wrap;html=1;" vertex="1" parent="1">
          <mxGeometry x="570" y="160" width="100" height="120" as="geometry" />
        </mxCell>
      </root>
    </mxGraphModel>
  </diagram>
</mxfile>
